<svg width="24" height="24" viewBox="0 0 24 24" fill="none" xmlns="http://www.w3.org/2000/svg">
<path fill-rule="evenodd" clip-rule="evenodd" d="M15.1659 22V14.7402H17.5309L17.884 11.9229H15.1659V10.0984C15.1659 9.26667 15.3785 8.70322 16.5144 8.70322H18V6.10732C17.7492 6.07378 16.8715 6 15.8716 6C13.7832 6 12.3718 7.34825 12.3718 9.79658V11.9229H10V14.7402H12.3713L12.3667 22H3.66667C2.75521 22 2 21.2448 2 20.3333V3.66667C2 2.75521 2.75521 2 3.66667 2H20.3333C21.2448 2 22 2.75521 22 3.66667V20.3333C22 21.2448 21.2448 22 20.3333 22H15.1659Z" fill="#151515"/>
</svg>
