<svg width="24" height="24" viewBox="0 0 24 24" fill="none" xmlns="http://www.w3.org/2000/svg">
<path d="M11.0004 2V8.414C9.61571 8.157 8.18546 8.33305 6.90443 8.91817C5.6234 9.50329 4.55385 10.469 3.84144 11.6839C3.12904 12.8988 2.8084 14.3037 2.92319 15.7073C3.03798 17.111 3.58263 18.4451 4.48296 19.5281C5.38328 20.6111 6.59553 21.3902 7.95461 21.7594C9.31368 22.1286 10.7535 22.0699 12.0781 21.5914C13.4026 21.1128 14.5474 20.2376 15.3567 19.085C16.1659 17.9324 16.6002 16.5583 16.6004 15.15V11.414C17.6754 11.8712 18.8322 12.1046 20.0004 12.1H21.0004V6.5H20.0004C18.0974 6.5 16.6004 4.963 16.6004 3V2H11.0004ZM13.0004 4H14.6884C15.0824 6.22 16.7684 7.996 19.0004 8.41V10.028C17.9624 9.876 17.0254 9.486 16.1574 8.905L14.6004 7.863V15.15C14.6003 16.1199 14.3094 17.0674 13.7654 17.8703C13.2213 18.6732 12.449 19.2945 11.5482 19.654C10.6474 20.0136 9.65952 20.0947 8.71213 19.8871C7.76474 19.6795 6.90136 19.1926 6.2335 18.4893C5.56563 17.786 5.12397 16.8986 4.96554 15.9418C4.80711 14.9849 4.9392 14.0026 5.34474 13.1216C5.75029 12.2405 6.41066 11.5014 7.24057 10.9995C8.07048 10.4976 9.03181 10.256 10.0004 10.306V11.91C9.34887 11.8597 8.69732 12.007 8.13077 12.3327C7.56423 12.6583 7.10902 13.1472 6.82454 13.7355C6.54005 14.3238 6.43952 14.9842 6.53605 15.6305C6.63259 16.2768 6.9217 16.879 7.36567 17.3584C7.80964 17.8379 8.38784 18.1725 9.02482 18.3183C9.66179 18.4642 10.3279 18.4147 10.9363 18.1763C11.5448 17.9378 12.0671 17.5215 12.4354 16.9816C12.8036 16.4418 13.0005 15.8035 13.0004 15.15V4ZM8.5004 15.15C8.5004 14.8185 8.63209 14.5005 8.86651 14.2661C9.10093 14.0317 9.41887 13.9 9.7504 13.9C10.0819 13.9 10.3999 14.0317 10.6343 14.2661C10.8687 14.5005 11.0004 14.8185 11.0004 15.15C11.0004 15.4815 10.8687 15.7995 10.6343 16.0339C10.3999 16.2683 10.0819 16.4 9.7504 16.4C9.41887 16.4 9.10093 16.2683 8.86651 16.0339C8.63209 15.7995 8.5004 15.4815 8.5004 15.15Z" fill="black"/>
</svg>
